PathFileType	4	(X/Y/Z)	c:/Users/goper/Files/vsCode/490R/osim_files/A04/A04_ROM.trc
DataRate	CameraRate	NumFrames	NumMarkers	Units                	OrigDataRate	OrigDataStartFrame	OrigNumFrames
120.00	120.00	5	36	mm	120.0	973	1556
                Frame#	Time	LPSIS			LASIS			LTH1			LTH2			LTH3			LTH4			LLFE			LMFE			LSH1			LSH2			LSH3			LSH4			LLMAL			LMMAL			LCAL			LMTP5			LTOE			LMTP1			RPSIS			RASIS			RTH1			RTH2			RTH3			RTH4			RLFE			RMFE			RSH1			RSH2			RSH3			RSH4			RLMAL			RMMAL			RCAL			RMTP1			RTOE			RMTP5		
		X1	Y1	Z1	X2	Y2	Z2	X3	Y3	Z3	X4	Y4	Z4	X5	Y5	Z5	X6	Y6	Z6	X7	Y7	Z7	X8	Y8	Z8	X9	Y9	Z9	X10	Y10	Z10	X11	Y11	Z11	X12	Y12	Z12	X13	Y13	Z13	X14	Y14	Z14	X15	Y15	Z15	X16	Y16	Z16	X17	Y17	Z17	X18	Y18	Z18	X19	Y19	Z19	X20	Y20	Z20	X21	Y21	Z21	X22	Y22	Z22	X23	Y23	Z23	X24	Y24	Z24	X25	Y25	Z25	X26	Y26	Z26	X27	Y27	Z27	X28	Y28	Z28	X29	Y29	Z29	X30	Y30	Z30	X31	Y31	Z31	X32	Y32	Z32	X33	Y33	Z33	X34	Y34	Z34	X35	Y35	Z35	X36	Y36	Z36

973	8.10000	-395.45267	1083.68652	513.76373	-199.13110	967.22003	421.02246	-283.89355	695.80292	362.90778	-273.57129	655.02057	349.77762	-224.58444	708.72321	358.86295	-220.86603	665.96021	345.90738	-235.31287	543.19025	338.14014	-208.14775	512.67694	472.92261	-263.13589	443.11688	315.33124	-253.93629	401.34537	307.27338	-201.18626	446.80569	323.22168	-201.63313	404.16553	315.34763	-254.58209	111.80331	275.42706	-226.47267	109.77840	354.86667	-313.92160	66.10780	331.74179	-119.46671	65.42622	222.61732	-65.42606	77.46288	279.21683	-77.76766	60.32705	324.17709	-394.81290	1076.55786	622.66589	-177.82109	1002.04492	702.38629	-240.78555	730.72125	762.83508	-229.42725	689.80011	764.05176	-179.17213	740.96533	763.40204	-176.00490	693.45520	762.63464	-154.80606	556.16467	744.38873	-163.44844	544.55310	627.84790	-221.54265	346.33502	761.05347	-221.49854	298.24689	754.79077	-159.17719	340.39459	758.03760	-169.49396	293.41696	757.79761	-211.89775	103.89486	769.83362	-198.24040	104.76176	633.08990	-287.06332	55.73049	698.94501	-70.73193	57.36096	643.59900	-39.64431	78.44842	688.24261	-71.42152	51.96923	763.41345
974	8.10833	-396.32648	1084.33240	512.29797	-200.93398	966.94611	418.65323	-285.11401	695.73273	361.15555	-274.59488	654.84375	348.07266	-225.72287	708.71808	356.99158	-221.91083	665.99811	344.13840	-236.02206	543.17157	336.65189	-208.71495	513.11871	471.51837	-263.15305	443.16107	314.10934	-254.52509	401.18860	306.23251	-201.76326	446.81262	322.00269	-202.19304	404.07266	314.31802	-254.56737	111.75469	275.24899	-226.50128	109.81686	354.70374	-313.94089	66.05455	331.68527	-119.48732	65.31563	222.52034	-65.47748	77.66843	278.88620	-77.76334	60.42104	324.07077	-395.65485	1076.84058	621.11127	-178.83618	1000.73694	700.16437	-241.41289	730.46002	761.16919	-230.03741	689.57996	762.37091	-179.85181	740.80981	761.66705	-176.60120	693.29022	761.03271	-154.78609	556.18494	742.96838	-163.22504	544.31378	626.55347	-221.48688	346.47986	760.21600	-221.45526	298.39645	754.05615	-159.12349	340.52380	757.17395	-169.50677	293.51239	757.11322	-211.83311	104.06733	769.60205	-198.26164	104.55647	632.84747	-287.16415	55.75295	698.75836	-70.70921	57.20571	643.45312	-39.62355	78.39732	688.07996	-71.37418	52.07184	763.28894
975	8.11667	-397.53757	1084.94531	510.65009	-202.65076	966.73822	416.25229	-286.20316	695.57483	359.29395	-275.62115	654.75269	346.35440	-226.86980	708.81708	355.12286	-222.99014	666.03436	342.31958	-236.67204	543.17133	335.21643	-209.30266	513.53943	470.16562	-264.13547	442.93112	312.93643	-254.96841	401.12338	305.18350	-202.34511	446.80121	320.86288	-202.74751	404.06549	313.29608	-254.56581	111.70483	275.09320	-226.55591	109.83869	354.57758	-313.99603	66.03780	331.62930	-119.52610	65.20723	222.40991	-65.51455	77.69945	278.75162	-77.75877	60.50201	323.97119	-396.59476	1077.13489	619.51782	-179.77415	999.49811	697.84058	-242.20482	730.30182	759.33710	-230.72421	689.40082	760.62616	-180.63036	740.64600	760.01038	-177.27411	693.19543	759.46368	-154.89941	556.23773	741.60168	-163.08415	544.15887	625.20715	-221.54253	346.61414	759.32520	-221.64027	298.49072	753.38300	-159.20605	340.65634	756.37738	-169.49763	293.66708	756.36768	-211.89131	104.20392	769.36304	-198.30939	104.40011	632.62067	-287.18042	55.73042	698.70001	-70.73109	57.08191	643.32123	-39.61703	78.39494	687.91595	-71.38998	52.19019	763.14105
976	8.12500	-398.38089	1085.56360	509.03003	-204.38913	966.55133	413.93350	-287.18698	695.55774	357.61636	-276.60596	654.66077	344.69666	-227.96489	708.89905	353.30875	-223.97226	666.04224	340.64377	-237.31064	543.21246	333.83057	-209.98708	513.91107	468.86642	-264.32904	442.95544	311.83032	-255.49910	400.98322	304.21677	-202.87973	446.81918	319.71402	-203.10081	404.09778	312.19717	-254.59650	111.64368	274.97903	-226.62460	109.84786	354.46564	-314.01865	66.00829	331.60434	-119.57119	65.09602	222.35414	-65.56982	77.68567	278.67252	-77.79777	60.53751	323.91476	-397.25980	1077.41980	617.94897	-180.78905	998.39362	695.54773	-242.91046	730.15912	757.25500	-231.30835	689.21985	758.87183	-181.26009	740.63086	758.34143	-177.92296	693.11633	757.89886	-155.14851	556.21515	740.29614	-163.36305	543.91632	623.89075	-221.72249	346.72354	758.54254	-221.64191	298.57574	752.67810	-159.32533	340.77890	755.53424	-169.65904	293.76178	755.66156	-211.92450	104.34656	769.17108	-198.36960	104.22798	632.38977	-287.18289	55.69595	698.63611	-70.74277	57.01595	643.23071	-39.64718	78.40519	687.79193	-71.40558	52.29021	763.03687
977	8.13333	-399.24072	1086.10205	507.40027	-206.03587	966.41968	411.59879	-288.30408	695.39758	355.92004	-277.53928	654.56775	343.12000	-228.95331	709.03363	351.53543	-224.89972	666.15179	338.99844	-238.03185	543.14026	332.46994	-210.43896	514.32404	467.51196	-265.31586	442.72974	310.84341	-256.06363	400.79813	303.22073	-203.45508	446.78275	318.62466	-203.67012	403.98657	311.23694	-254.65205	111.56525	274.91238	-226.69942	109.84055	354.35883	-314.03152	65.97687	331.60519	-119.61218	64.96304	222.29265	-65.60403	77.68327	278.57629	-77.81589	60.55346	323.88739	-398.01749	1077.67847	616.31366	-181.75926	997.28833	693.22528	-243.67485	729.94250	755.46979	-231.95992	689.12427	757.12659	-181.96925	740.56458	756.72620	-178.53247	693.07745	756.36584	-155.38933	556.26630	739.02124	-163.88281	543.67841	622.56915	-221.82756	346.77740	757.72015	-221.75891	298.63055	751.98730	-159.57880	340.90335	754.81958	-169.81995	293.92142	755.10999	-211.92548	104.46220	768.98285	-198.40802	104.06089	632.16412	-287.21017	55.64400	698.59027	-70.76063	56.95536	643.15698	-39.65743	78.42623	687.68909	-71.45741	52.38787	762.97620
